# xmcd
#
# Track frame offsets:
#	150
#	19954
#	33275
#	51591
#	71655
#
# Disc length: 1227 seconds
#
# Revision: 0
# Processed by: cddbd v1.5.1PL0 Copyright (c) Steve Scherf et al.
# Submitted via: dBpowerAMP V4.0
#
DISCID=4304c905
DTITLE=Jamie Scott - Album Sampler
DYEAR=2004
DGENRE=Soul
TTITLE0=Searching
TTITLE1=Love Song To Remember
TTITLE2=Just
TTITLE3=Shameful
TTITLE4=River
EXTD=
EXTT0=
EXTT1=
EXTT2=
EXTT3=
EXTT4=
PLAYORDER=
